<?xml version="1.0" standalone="no"?>
<!DOCTYPE svg PUBLIC "-//W3C//DTD SVG 20010904//EN"
 "http://www.w3.org/TR/2001/REC-SVG-20010904/DTD/svg10.dtd">
<svg version="1.0" xmlns="http://www.w3.org/2000/svg"
 width="1024.000000pt" height="1024.000000pt" viewBox="0 0 1024.000000 1024.000000"
 preserveAspectRatio="xMidYMid meet">
<metadata>
Created by potrace 1.14, written by Peter Selinger 2001-2017
</metadata>
<g transform="translate(0.000000,1024.000000) scale(0.100000,-0.100000)"
fill="#000000" stroke="none">
<path d="M1330 5125 l0 -2405 505 0 505 0 0 751 0 752 128 135 c70 75 161 171
202 215 l75 79 163 -234 c89 -128 391 -561 670 -963 l509 -730 596 -3 c328 -1
597 0 597 4 0 4 -1667 2371 -1822 2587 l-49 68 245 292 c134 161 539 643 898
1072 l654 780 -610 3 -611 2 -31 -32 c-38 -40 -1299 -1551 -1479 -1773 l-130
-160 -3 983 -2 982 -505 0 -505 0 0 -2405z"/>
<path d="M5420 5125 l0 -2406 1028 4 c1099 4 1090 4 1332 56 521 114 894 418
1041 849 115 338 111 752 -10 1043 -59 141 -162 287 -281 395 -48 44 -192 144
-207 144 -5 0 -17 6 -27 13 -17 12 -12 18 52 66 152 112 292 290 362 458 86
205 106 465 59 742 -41 239 -164 470 -336 631 -179 167 -406 279 -697 345
-260 58 -258 58 -1328 62 l-988 4 0 -2406z m1965 1532 c208 -46 313 -126 376
-285 21 -51 23 -74 24 -222 0 -159 -1 -168 -28 -231 -49 -116 -155 -215 -287
-267 -127 -51 -168 -55 -622 -59 l-428 -5 0 547 0 547 448 -5 c353 -3 462 -8
517 -20z m100 -1884 c224 -64 341 -180 396 -391 26 -99 29 -287 5 -385 -37
-155 -136 -280 -276 -349 -156 -76 -255 -87 -792 -88 l-398 0 0 621 0 620 498
-4 c461 -3 502 -5 567 -24z"/>
</g>
</svg>
